<svg version="1.1" id="Layer_1" xmlns="http://www.w3.org/2000/svg" xmlns:xlink="http://www.w3.org/1999/xlink" x="0px" y="0px"
	 width="100%" viewBox="0 0 426 520" enable-background="new 0 0 426 520" xml:space="preserve">
<path fill="#FFFFFF" opacity="1.000000" stroke="none" 
	d="
M208.000000,521.000000 
	C138.684845,521.000000 69.869690,521.000000 1.027269,521.000000 
	C1.027269,347.730621 1.027269,174.461258 1.027269,1.095937 
	C142.898483,1.095937 284.797058,1.095937 426.847809,1.095937 
	C426.847809,174.333221 426.847809,347.666595 426.847809,521.000000 
	C354.127899,521.000000 281.313965,521.000000 208.000000,521.000000 
M137.671921,418.100098 
	C160.391037,371.921448 183.110138,325.742828 206.041626,279.132507 
	C247.398651,330.250793 288.165680,380.639832 329.025024,431.142944 
	C344.430328,418.666809 359.372650,406.565613 374.510345,394.306183 
	C331.666870,341.330536 289.167236,288.780090 246.496902,236.018494 
	C291.047699,205.253708 335.031311,174.880600 379.241852,144.350784 
	C368.124817,128.257736 357.119141,112.325844 345.973999,96.192085 
	C306.396912,123.506142 267.247009,150.525375 227.288300,178.102798 
	C227.288300,131.799500 227.288300,86.594124 227.288300,41.269295 
	C207.617859,41.269295 188.387421,41.269295 168.819687,41.269295 
	C168.819687,81.264580 168.819687,120.991425 168.819687,161.596893 
	C130.768814,136.428680 93.355507,111.682182 55.773315,86.823982 
	C44.856125,103.354004 34.279816,119.367889 23.521103,135.657944 
	C71.042419,167.116592 118.095329,198.265152 165.278076,229.499664 
	C131.429901,298.146332 97.726433,366.499542 63.846035,435.211578 
	C81.556641,443.917023 98.880600,452.432434 116.393997,461.040985 
	C123.474503,446.655060 130.351730,432.682159 137.671921,418.100098 
z"/>
<path fill="#010101" opacity="1.000000" stroke="none" 
	d="
M137.450439,418.404694 
	C130.351730,432.682159 123.474503,446.655060 116.393997,461.040985 
	C98.880600,452.432434 81.556641,443.917023 63.846035,435.211578 
	C97.726433,366.499542 131.429901,298.146332 165.278076,229.499664 
	C118.095329,198.265152 71.042419,167.116592 23.521103,135.657944 
	C34.279816,119.367889 44.856125,103.354004 55.773315,86.823982 
	C93.355507,111.682182 130.768814,136.428680 168.819687,161.596893 
	C168.819687,120.991425 168.819687,81.264580 168.819687,41.269295 
	C188.387421,41.269295 207.617859,41.269295 227.288300,41.269295 
	C227.288300,86.594124 227.288300,131.799500 227.288300,178.102798 
	C267.247009,150.525375 306.396912,123.506142 345.973999,96.192085 
	C357.119141,112.325844 368.124817,128.257736 379.241852,144.350784 
	C335.031311,174.880600 291.047699,205.253708 246.496902,236.018494 
	C289.167236,288.780090 331.666870,341.330536 374.510345,394.306183 
	C359.372650,406.565613 344.430328,418.666809 329.025024,431.142944 
	C288.165680,380.639832 247.398651,330.250793 206.041626,279.132507 
	C183.110138,325.742828 160.391037,371.921448 137.450439,418.404694 
z"/>
</svg>